<?xml version="1.0" encoding="UTF-8" standalone="no"?>
<svg
   version="1.1"
   id="camel-1055111_xA0_Image_1_"
   x="0px"
   y="0px"
   viewBox="0 0 661.53522 661.48224"
   enable-background="new 0 0 1703 859"
   xml:space="preserve"
   sodipodi:docname="cozy_palms_cafe_logo.svg"
   inkscape:version="1.3 (0e150ed6c4, 2023-07-21)"
   width="661.53522"
   height="661.48224"
   xmlns:inkscape="http://www.inkscape.org/namespaces/inkscape"
   xmlns:sodipodi="http://sodipodi.sourceforge.net/DTD/sodipodi-0.dtd"
   xmlns="http://www.w3.org/2000/svg"
   xmlns:svg="http://www.w3.org/2000/svg"><defs
   id="defs2"><rect
     x="890.95453"
     y="683.06512"
     width="227.28911"
     height="52.704582"
     id="rect2" /><rect
     x="848.90918"
     y="673.22577"
     width="88.714401"
     height="33.881001"
     id="rect1" /></defs><sodipodi:namedview
   id="namedview2"
   pagecolor="#ffffff"
   bordercolor="#000000"
   borderopacity="0.25"
   inkscape:showpageshadow="2"
   inkscape:pageopacity="0.0"
   inkscape:pagecheckerboard="true"
   inkscape:deskcolor="#d1d1d1"
   inkscape:zoom="1.4142136"
   inkscape:cx="340.82547"
   inkscape:cy="453.609"
   inkscape:window-width="1560"
   inkscape:window-height="1019"
   inkscape:window-x="-8"
   inkscape:window-y="30"
   inkscape:window-maximized="1"
   inkscape:current-layer="path5"
   showguides="false"><sodipodi:guide
     position="-520.68785,99.32098"
     orientation="1,0"
     id="guide3"
     inkscape:locked="false" /></sodipodi:namedview>&#10;<g
   inkscape:groupmode="layer"
   id="layer3"
   inkscape:label="Background"
   style="display:inline"
   transform="translate(-520.73247,-98.758698)"><ellipse
     style="fill:none;fill-opacity:0.529745;stroke:none;stroke-width:6;stroke-linecap:round;stroke-linejoin:round;paint-order:markers fill stroke"
     id="path3"
     cx="-893.60333"
     cy="333.15997"
     rx="330.58267"
     ry="330.92596"
     inkscape:label="path3"
     transform="rotate(-132.78661)" /><rect
     style="fill:none;stroke:none;stroke-width:8;stroke-linecap:round;stroke-linejoin:round;stroke-dasharray:16, 48;paint-order:stroke fill markers"
     id="rect3"
     width="567.09961"
     height="486.3826"
     x="581.24176"
     y="250.48576"
     rx="8.4879932"
     ry="6.8795218" /></g><g
   inkscape:groupmode="layer"
   id="layer2"
   inkscape:label="Sun"
   transform="translate(-520.73247,-98.758698)" /><g
   inkscape:groupmode="layer"
   id="layer1"
   inkscape:label="Palms"
   transform="translate(115.60735,-198.40043)"
   style="display:inline"><g
     id="g3"
     transform="matrix(0.52393478,0,0,0.52393478,94.24498,213.41504)"
     style="stroke-width:1.90863" /></g><g
   id="g1"
   transform="translate(-520.73247,-154.7587)"><path
     style="color:#000000;fill:#ff7b23;stroke-linecap:round;stroke-linejoin:round;stroke-dasharray:16, 48;-inkscape-stroke:none;paint-order:markers fill stroke"
     d="M 842.4961,406.44442 A 93.205588,93.205588 0 0 1 952.14621,479.59785 93.205588,93.205588 0 0 1 878.99272,589.24793 93.205588,93.205588 0 0 1 769.34265,516.09448 93.205588,93.205588 0 0 1 842.4961,406.44442 Z"
     id="path21" /><path
     style="color:#000000;fill:#ffa208;stroke:#ffa208;stroke-width:0.762738;stroke-linecap:round;stroke-linejoin:round;stroke-dasharray:none;stroke-opacity:1;paint-order:markers fill stroke"
     d="m 49.013444,922.4327 c -3.296204,0 -6.590709,0.18599 -9.866459,0.55984 -7.241498,0.82611 -14.373678,2.58103 -21.172204,5.21542 v -0.002 c -7.827246,3.02919 -15.1941197,7.2179 -21.8068475,12.38011 a 3.4814799,3.4814799 0 0 0 -0.6006459,4.88676 3.4814799,3.4814799 0 0 0 4.88676466,0.60064 C 6.5286246,941.33106 13.30439,937.47967 20.488428,934.69941 a 3.481828,3.481828 0 0 0 0.0023,0 c 6.23905,-2.4176 12.794895,-4.03065 19.445062,-4.7893 6.025142,-0.68765 12.132499,-0.68765 18.15764,0 6.650169,0.75865 13.206014,2.3717 19.445064,4.7893 a 3.481828,3.481828 0 0 0 0.0023,0 c 6.829179,2.64294 13.290224,6.2541 19.130007,10.6779 6.302429,4.77065 11.891689,10.49406 16.509829,16.90876 a 3.481828,3.481828 0 0 0 0,0.002 c 4.28875,5.95246 7.74719,12.50901 10.22457,19.41106 1.22338,3.40634 2.21062,6.89821 2.9511,10.43991 a 3.4814799,3.4814799 0 0 0 4.12066,2.69497 3.4814799,3.4814799 0 0 0 2.69498,-4.12066 c -0.80671,-3.85837 -1.88203,-7.6582 -3.21402,-11.36694 -2.69943,-7.5206 -6.45814,-14.64955 -11.12668,-21.12913 -5.02626,-6.98159 -11.09712,-13.19911 -17.95592,-18.39111 h -0.002 c -6.355101,-4.81394 -13.379641,-8.73929 -20.818613,-11.61853 -6.798526,-2.63439 -13.930705,-4.38931 -21.172203,-5.21542 -3.275752,-0.37385 -6.572523,-0.55984 -9.868726,-0.55984 z m 82.501556,82.5016 a 3.4814799,3.4814799 0 0 0 -3.48148,3.4814 c 10e-4,6.4921 -0.78825,12.9853 -2.36632,19.2751 -1.71731,6.8581 -4.37352,13.4868 -7.8628,19.6378 a 3.481828,3.481828 0 0 0 -0.002,0 c -3.82395,6.7471 -8.65237,12.9323 -14.26818,18.2846 a 3.481828,3.481828 0 0 0 -0.002,0 c -5.50616,5.2515 -11.774963,9.7095 -18.545223,13.1757 a 3.481828,3.481828 0 0 0 -0.0023,0 c -6.173479,3.1637 -12.771726,5.5043 -19.558391,6.9358 a 3.481828,3.481828 0 0 0 -0.0023,0 c -7.8612,1.6612 -15.986473,2.1065 -23.994106,1.3463 -6.681308,-0.6342 -13.284484,-2.1255 -19.583325,-4.4335 a 3.481828,3.481828 0 0 0 -0.0023,0 c -2.561386,-0.9378 -5.072675,-2.0101 -7.522807,-3.2094 a 3.4814799,3.4814799 0 0 0 -4.6578383,1.5956 3.4814799,3.4814799 0 0 0 1.5956783,4.6579 c 2.667408,1.3058 5.402366,2.4716 8.19145,3.4928 6.864072,2.5151 14.045427,4.1373 21.319531,4.8278 8.702848,0.8262 17.528902,0.3456 26.092967,-1.4642 7.39461,-1.5597 14.572318,-4.1061 21.296866,-7.5522 7.373481,-3.775 14.185478,-8.6217 20.177168,-14.3363 6.11042,-5.8238 11.36022,-12.5427 15.52386,-19.8892 3.80004,-6.6987 6.68958,-13.9077 8.56091,-21.3808 h -0.002 c 1.71969,-6.8542 2.57884,-13.9147 2.57712,-20.9728 a 3.4814799,3.4814799 0 0 0 -3.48148,-3.4792 z"
     id="path16"
     transform="matrix(0.73643737,-1.0846906,1.0846906,0.73643737,-270.08501,-191.89001)" /><path
     style="color:#000000;fill:#ffa208;stroke-width:1;stroke-linecap:round;stroke-linejoin:round;stroke-dasharray:16, 48.0001;-inkscape-stroke:none;paint-order:markers fill stroke"
     d="m 857.16167,294.65342 c -10.26464,0.27219 -20.49423,1.43294 -30.553,3.44202 -6.10165,1.21857 -12.14481,2.74865 -18.0968,4.5918 a 7.3814488,7.3814488 0 0 0 -4.8693,9.23401 7.3814488,7.3814488 0 0 0 9.234,4.8693 c 5.45831,-1.69026 11.011,-3.09622 16.62269,-4.21693 9.24361,-1.84628 18.64241,-2.9113 28.05527,-3.1609 a 7.3814488,7.3814488 0 0 0 7.18322,-7.57608 7.3814488,7.3814488 0 0 0 -7.57608,-7.18322 z m 83.29,20.4828 a 7.3814488,7.3814488 0 0 0 -4.36473,3.5898 7.3814488,7.3814488 0 0 0 3.03837,9.9873 c 8.3117,4.43199 16.24888,9.57919 23.68694,15.36121 a 7.3814488,7.3814488 0 0 0 10.35856,-1.29753 7.3814488,7.3814488 0 0 0 -1.29753,-10.35854 c -8.10242,-6.29844 -16.74192,-11.90495 -25.79903,-16.73441 a 7.3814488,7.3814488 0 0 0 -5.62258,-0.54783 z m -204.26215,33.65263 a 7.3814488,7.3814488 0 0 0 -5.15042,2.32472 c -7.02701,7.48276 -13.40588,15.56666 -19.05553,24.13388 a 7.3814488,7.3814488 0 0 0 2.09764,10.22517 7.3814488,7.3814488 0 0 0 10.22519,-2.09766 c 5.18665,-7.8651 11.04714,-15.28921 17.4949,-22.15514 a 7.3814488,7.3814488 0 0 0 -0.32799,-10.43423 7.3814488,7.3814488 0 0 0 -5.28379,-1.99674 z m 287.15568,52.23239 a 7.3814488,7.3814488 0 0 0 -5.6478,0.007 7.3814488,7.3814488 0 0 0 -3.9863,9.64851 c 3.6129,8.69367 6.4729,17.71011 8.5528,26.90192 a 7.3814488,7.3814488 0 0 0 8.8304,5.56852 7.3814488,7.3814488 0 0 0 5.5685,-8.82673 c -2.2643,-10.00631 -5.3758,-19.82615 -9.3169,-29.30956 a 7.3814488,7.3814488 0 0 0 -4.0007,-3.98987 z m -332.75991,53.90838 a 7.3814488,7.3814488 0 0 0 -7.86442,6.86604 c -0.69321,10.24545 -0.49526,20.54896 0.58029,30.75844 a 7.3814488,7.3814488 0 0 0 8.1131,6.56689 7.3814488,7.3814488 0 0 0 6.56691,-8.1131 c -0.98668,-9.36588 -1.1654,-18.82031 -0.52982,-28.21387 a 7.3814488,7.3814488 0 0 0 -6.86606,-7.8644 z m 338.03291,61.49524 a 7.3814488,7.3814488 0 0 0 -9.198,4.9414 c -2.7152,9.01648 -6.2128,17.80138 -10.4306,26.22433 a 7.3814488,7.3814488 0 0 0 3.2978,9.90439 7.3814488,7.3814488 0 0 0 9.9044,-3.29425 c 4.5956,-9.17724 8.4036,-18.74657 11.3641,-28.57788 a 7.3814488,7.3814488 0 0 0 -4.9377,-9.19799 z M 722.77822,566.4695 a 7.3814488,7.3814488 0 0 0 -5.50726,1.26508 7.3814488,7.3814488 0 0 0 -1.73003,10.29367 c 5.95687,8.36538 12.63679,16.20704 19.93495,23.42385 a 7.3814488,7.3814488 0 0 0 10.43783,-0.0576 7.3814488,7.3814488 0 0 0 -0.0576,-10.43783 c -6.69804,-6.62337 -12.83057,-13.82316 -18.29142,-21.49199 a 7.3814488,7.3814488 0 0 0 -4.78641,-2.99511 z m 236.4226,43.0164 a 7.3814488,7.3814488 0 0 0 -5.53608,1.12453 c -7.80727,5.26126 -16.07375,9.84576 -24.67091,13.68163 a 7.3814488,7.3814488 0 0 0 -3.73398,9.74581 7.3814488,7.3814488 0 0 0 9.74944,3.73398 c 9.37848,-4.18446 18.38962,-9.18268 26.90553,-14.92148 a 7.3814488,7.3814488 0 0 0 1.99673,-10.24682 7.3814488,7.3814488 0 0 0 -4.71073,-3.11765 z m -140.71246,23.39141 a 7.3814488,7.3814488 0 0 0 -9.06463,5.17567 7.3814488,7.3814488 0 0 0 5.17567,9.06822 c 9.90506,2.70652 20.03988,4.55474 30.26466,5.51446 a 7.3814488,7.3814488 0 0 0 8.04102,-6.6606 7.3814488,7.3814488 0 0 0 -6.66059,-8.04102 c -9.37286,-0.87977 -18.67363,-2.57496 -27.75613,-5.05673 z"
     id="path22" /><path
     style="color:#000000;display:inline;fill:#ffa208;stroke:none;stroke-width:0.762738;stroke-linecap:round;stroke-linejoin:round;stroke-dasharray:none;stroke-opacity:1;-inkscape-stroke:none;paint-order:markers fill stroke"
     d="m 49.636718,899.64144 c -59.787459,0 -108.35074,48.56328 -108.35074,108.35076 -3.4e-5,59.7874 48.563258,108.3508 108.35074,108.3508 59.787482,0 108.350772,-48.5634 108.350742,-108.3508 0,-59.78748 -48.56329,-108.35076 -108.350742,-108.35076 z m 0,8.91672 c 54.968232,0 99.434012,44.46578 99.434012,99.43404 4e-5,54.9682 -44.46575,99.434 -99.434012,99.434 -54.9682596,0 -99.431193,-44.4658 -99.431164,-99.434 2e-6,-54.96826 44.4629263,-99.43404 99.431164,-99.43404 z"
     id="path20"
     transform="matrix(0.73643737,-1.0846906,1.0846906,0.73643737,-270.08501,-191.89001)" /><path
     style="color:#000000;display:inline;fill:#ffa208;stroke:none;stroke-width:1;stroke-linecap:round;stroke-linejoin:round;stroke-dasharray:none;stroke-opacity:1;-inkscape-stroke:none;paint-order:markers fill stroke"
     d="m 742.80194,416.79908 c -44.02972,64.8509 -27.1174,153.29085 37.73351,197.32058 64.85081,44.02971 153.2909,27.11747 197.32063,-37.73345 44.02972,-64.85092 27.11732,-153.29096 -37.73356,-197.32061 -64.85091,-44.02973 -153.29087,-27.1174 -197.32058,37.73348 z m 9.67188,6.56661 c 40.48066,-59.62352 121.45854,-75.10888 181.08209,-34.62819 59.62352,40.48059 75.10889,121.45849 34.6282,181.08205 -40.48068,59.62355 -121.45648,75.1058 -181.07995,34.62513 -59.62355,-40.48068 -75.111,-121.45546 -34.63034,-181.07899 z"
     id="path18" /><path
     style="display:inline;fill:#1e1e2c;fill-opacity:1;stroke-width:0.999998"
     d="m 223.52051,656.51112 c 1.24221,-1.51059 2.35748,-3.07766 3.27956,-4.73901 1.68927,-3.04366 2.85246,-6.23695 3.93588,-9.45358 0.68302,-2.02786 1.38906,-4.04998 2.07967,-6.07609 0.54455,-1.59757 1.17623,-3.17273 1.8079,-4.74739 0.25614,-0.63855 0.5259,-1.27355 0.80185,-1.90643 0.0456,-0.10457 0.10233,-0.32239 0.31172,-0.16167 0.18453,0.14167 0.4355,0.29453 0.44506,0.5159 0.009,0.21269 -0.31618,0.16542 -0.46501,0.26858 -0.0221,0.0153 -0.0489,0.0271 -0.076,0.0354 -0.21762,0.0675 -0.19166,0.19788 -0.0411,0.26406 0.49017,0.21562 0.31719,0.35156 -0.0547,0.49078 -0.0784,0.0293 -0.13703,0.0934 -0.21447,0.12566 -0.0803,0.0335 -0.10023,0.0818 -0.0922,0.14555 0.0105,0.0841 0.0923,0.0811 0.16295,0.0805 0.11713,-10e-4 0.23538,-10e-4 0.35102,-0.0149 1.2046,-0.13793 2.22407,-0.78861 3.46377,-0.85145 0.25094,-0.0135 0.49418,-0.1897 0.7323,-0.30336 0.49883,-0.23814 0.99211,-0.48433 1.52256,-0.74454 0.012,0.12088 0.0209,0.19096 0.0251,0.26149 0.0251,0.42896 0.061,0.44784 0.56871,0.35745 0.222,-0.0395 0.45053,-0.0546 0.76064,-0.0902 -0.30606,0.22223 -0.60515,0.31401 -0.88044,0.43797 -0.17886,0.0805 -0.43669,0.10322 -0.31817,0.37871 0.10127,0.23553 0.15227,0.47585 0.56227,0.42766 0.10591,-0.012 0.22924,-0.034 0.37999,0.0618 -0.34066,0.24669 -0.42062,0.51385 -0.0302,0.77931 0.0295,0.0201 0.0135,0.0929 0.007,0.14047 -0.0369,0.32801 0.28739,0.42852 0.54165,0.53458 0.28659,0.11952 0.39826,-0.12072 0.53329,-0.26665 0.0785,-0.0848 0.1282,-0.18771 0.19644,-0.27952 0.10441,-0.14062 0.19635,-0.15159 0.31431,0.003 0.2199,0.28871 0.31621,0.59564 0.2647,0.93389 -0.0344,0.2256 0.0938,0.37893 0.35616,0.34201 0.47459,-0.0669 1.03722,0.0833 1.38282,-0.35811 0.0703,-0.0898 0.23284,-0.17694 0.38192,-0.13404 0.15796,0.0455 0.0696,0.18824 0.0908,0.28661 0.0537,0.24856 0.17762,0.32696 0.45213,0.16359 0.25999,-0.15471 0.55575,-0.27345 0.79155,-0.44891 0.3021,-0.22478 0.77923,-0.25758 1.00088,-0.49271 1.21264,-1.28649 2.23353,-2.66943 2.80168,-4.25147 0.16875,-0.46994 0.30083,-0.52913 0.8405,-0.37097 0.172,0.0504 0.25255,0.11997 0.0998,0.2602 -0.12641,0.11608 -0.24061,0.24053 -0.36262,0.36002 -0.0956,0.0937 -0.13373,0.21398 -0.0341,0.29498 0.10337,0.0839 0.20545,-0.0199 0.30143,-0.0721 1.69834,-0.92369 2.81957,-2.20342 3.44187,-3.79739 0.18546,-0.47506 0.30806,-0.96257 0.44182,-1.47169 0.15646,0.11997 0.21646,0.23638 0.28919,0.35616 0.23718,0.39062 0.41528,0.81912 0.96481,1.02149 0.47837,0.17616 0.64334,0.47811 0.42187,0.9004 -0.0317,0.0606 -0.1312,0.16612 -0.0174,0.22607 0.0981,0.0516 0.21833,0.0205 0.33234,-0.0265 0.22132,-0.0909 0.38641,-0.30148 0.70461,-0.24216 -0.15945,0.57304 -0.34202,1.12975 -0.43023,1.70289 -0.0175,0.11339 -0.14271,0.24713 0.0179,0.32205 0.16603,0.0773 0.28936,-0.044 0.41091,-0.13853 0.26662,-0.20732 0.48025,-0.46684 0.89332,-0.64921 -0.14121,0.38488 -0.26039,0.70368 -0.37484,1.02342 -0.11654,0.3256 -0.0461,0.38701 0.40382,0.31558 -0.22071,0.6741 -0.44589,1.33059 -0.64793,1.99209 -0.12012,0.39326 -0.37257,0.79361 -0.21383,1.19796 0.19782,0.50381 0.5653,0.94861 0.92037,1.38989 0.15302,0.19019 0.28152,0.16415 0.39675,-0.0477 0.47426,-0.87178 0.78972,-1.7827 0.94162,-2.7276 0.18886,-1.17487 0.0796,-2.3496 -0.0857,-3.51982 -0.1288,-0.91179 -0.33579,-1.81615 -0.85016,-2.6368 -1.25609,-2.00396 -2.81743,-3.8315 -4.73451,-5.44426 -0.54393,-0.45759 -1.08179,-0.91994 -1.6224,-1.38023 0.0227,-10e-4 0.047,-0.006 0.0657,10e-4 0.25189,0.0875 0.43869,0.28752 0.74646,0.2821 0.3621,-0.006 0.45838,-0.25861 0.63312,-0.44376 0.13493,-0.14301 0.22564,-0.0377 0.29948,0.0561 0.30816,0.39119 0.75972,0.66084 1.17542,0.96158 0.13479,0.0975 0.27106,0.14481 0.43861,0.0857 0.49226,-0.17371 0.89716,-0.0298 1.27976,0.2267 0.19725,0.13224 0.38304,0.13613 0.55389,-0.0541 0.18853,-0.20985 0.39938,-0.40587 0.62087,-0.6286 0.14077,0.14526 0.22898,0.28909 0.30207,0.4457 0.0383,0.0818 0.0461,0.21412 0.2003,0.20996 0.14795,-0.004 0.15992,-0.12326 0.18936,-0.21384 0.20305,-0.6247 0.20409,-1.24315 -0.1636,-1.82721 -0.14615,-0.23221 -0.1068,-0.32332 0.20288,-0.37097 0.0939,-0.015 0.18847,-0.0603 0.29112,-0.0534 0.30836,0.0206 0.36906,-0.12701 0.34586,-0.33813 -0.0488,-0.4449 -0.28473,-0.83077 -0.57064,-1.19539 -0.10875,-0.13867 -0.24124,-0.32493 -0.43924,-0.33942 -0.78814,-0.0576 -1.46924,-0.45253 -2.26905,-0.46823 -0.21548,-0.004 -0.34837,-0.12894 -0.40318,-0.32011 -0.0565,-0.19699 -0.0989,-0.40345 -0.25569,-0.5732 -0.20698,-0.22417 -0.38803,-0.33986 -0.75999,-0.14047 -0.42067,0.22558 -0.91944,0.35064 -1.3783,0.52942 -0.23116,0.09 -0.36226,0.0447 -0.48176,-0.14301 -0.30915,-0.48573 -0.42435,-0.57382 -1.11617,-0.20095 -0.20256,0.10921 -0.49633,0.31712 -0.61636,0.22026 -0.15031,-0.12132 0.0651,-0.3703 0.16874,-0.54809 0.55756,-0.95618 1.12393,-1.90935 1.69132,-2.86157 0.14929,-0.25062 0.20959,-0.48394 -0.14496,-0.66662 0.57674,-0.20462 0.58424,-0.28192 0.53909,-0.8888 -0.032,-0.43085 -0.43677,-0.12999 -0.60865,-0.27631 0.10457,-0.15378 0.29875,-0.21811 0.48176,-0.27244 0.35252,-0.10471 0.52777,-0.28294 0.58225,-0.60284 0.17249,-1.01277 -0.0745,-2.00048 -0.19709,-2.99682 -0.0184,-0.14944 -0.10427,-0.19232 -0.25506,-0.17069 -0.3476,0.05 -0.56517,-0.0917 -0.78639,-0.29562 -0.28564,-0.26336 -0.60975,-0.48579 -1.1065,-0.31752 -0.23616,0.08 -0.28433,0.15478 -0.16745,0.34457 0.33058,0.5369 0.30738,0.59287 -0.27051,0.90362 -0.62863,0.33804 -0.63975,0.34198 -0.33878,0.89654 0.12955,0.23881 0.0905,0.40131 -0.16874,0.55196 -0.2615,0.15193 -0.49997,0.3309 -0.75614,0.4895 -0.20167,0.12476 -0.21213,0.23673 -0.0844,0.42636 0.17813,0.26447 0.57436,0.3375 0.72908,0.6357 -0.23746,-0.0488 -0.48416,-0.0568 -0.67176,-0.1481 -0.27598,-0.13418 -0.4102,0.0358 -0.59253,0.14884 -0.46878,-1.15414 -1.11143,-2.20256 -1.96054,-3.16557 -0.42215,-0.47879 -0.87084,-0.93543 -1.3828,-1.34995 -0.12267,-0.0993 -0.26698,-0.20228 -0.41929,-0.12177 -0.1285,0.0679 -0.0709,0.22719 -0.0374,0.33878 0.0428,0.14241 0.10516,0.27758 0.0135,0.45343 -0.47088,-0.21484 -1.0767,-0.13598 -1.45622,-0.55777 -0.54964,-0.61093 -1.2052,-1.14689 -1.84718,-1.69195 -0.40912,-0.34736 -0.60976,-0.52137 -0.7806,-0.50366 h -6.9e-4 c -0.17073,0.0186 -0.31245,0.22885 -0.60414,0.64793 -0.20093,0.28868 -0.18757,0.49805 0.11982,0.71878 0.13404,0.0962 0.36814,0.2343 0.28534,0.37484 -0.15006,0.25459 0.0401,0.31126 0.21961,0.41992 0.32314,0.19557 0.63263,0.40634 0.95579,0.61638 -0.13224,0.0877 -0.3161,-0.0269 -0.34393,0.0941 -0.0544,0.23686 0.36124,0.21692 0.38,0.42894 -0.30468,0.0889 -0.62008,0.0181 -0.93196,0.0212 -0.30638,0.003 -0.318,0.10187 -0.18162,0.2866 0.13119,0.17769 0.39084,0.28773 0.41735,0.53716 -0.11175,-0.006 -0.21284,-0.018 -0.31237,-0.0135 -0.051,0.003 -0.12221,0.0256 -0.1442,0.0579 -0.0378,0.0558 -0.0175,0.11758 0.0643,0.15007 0.71342,0.28246 1.14161,0.91789 1.94572,1.08524 0.37668,0.0784 0.31532,0.21254 0.0863,0.37292 -0.27441,0.19214 -0.692,0.30454 -0.52749,0.73809 -0.62733,-0.5885 -1.14745,-1.20607 -1.73575,-1.78019 -0.9453,-0.92248 -1.97336,-1.76507 -3.17524,-2.45259 -1.73404,-0.99196 -3.70964,-1.53335 -5.70125,-2.03396 -0.29175,-0.0733 -0.60929,-0.0585 -0.88945,0.0844 -0.0729,0.0371 -0.17764,0.0721 -0.13463,0.15972 0.0226,0.0461 0.10726,0.0977 0.16681,0.10052 0.20033,0.009 0.40812,-0.0211 0.36261,0.24602 -0.012,0.0669 0.11354,0.0504 0.18099,0.0534 0.10217,0.004 0.24815,-0.015 0.27437,0.074 0.10023,0.33862 0.37227,0.20038 0.61315,0.17455 0.11503,-0.012 0.23342,-0.003 0.35037,-0.003 -0.25609,0.20947 -0.53971,0.34654 -0.81797,0.49013 -0.10052,0.0519 -0.29196,0.0504 -0.25634,0.19836 0.0386,0.16031 0.2163,0.0776 0.32976,0.0838 0.40498,0.0217 0.80759,-0.14749 1.23146,-0.0329 -0.14406,0.16007 -0.47153,0.0761 -0.50945,0.30786 -0.0293,0.17893 0.23137,0.13105 0.313,0.19579 -0.0507,0.18196 -0.39745,0.20907 -0.27694,0.36197 0.10098,0.1282 0.34166,0.0183 0.52491,-0.015 0.34599,-0.0625 0.68565,-0.17685 1.06657,-0.14107 -0.0776,0.15938 -0.28047,0.13913 -0.39353,0.23316 -0.0951,0.0791 -0.30505,0.0857 -0.26084,0.24732 0.039,0.14286 0.21145,0.13747 0.3523,0.15909 0.24611,0.0377 0.50308,0.0491 0.74197,0.18355 -0.1315,0.0449 -0.24032,0.0767 -0.34265,0.11848 -0.0856,0.035 -0.22753,0.042 -0.21061,0.15135 0.0199,0.12865 0.16771,0.11609 0.28017,0.11788 0.29817,0.004 0.59649,10e-4 0.94549,10e-4 -0.17272,0.1547 -0.35914,0.28899 0.007,0.29756 0.24159,0.006 0.46086,0.0498 0.71234,0.11728 -0.27893,0.11279 -0.5233,0.21514 -0.7716,0.31045 -0.0869,0.0334 -0.15153,0.0652 -0.13269,0.15714 0.0171,0.0832 0.10113,0.0734 0.16617,0.0902 0.26155,0.0675 0.52932,0.12117 0.78383,0.20352 0.63125,0.20416 0.62841,0.20847 0.10816,0.55454 -0.10187,0.0678 -0.22892,0.14046 -0.17197,0.26793 0.0534,0.11952 0.1789,0.10441 0.32204,0.11264 0.53298,0.0308 1.04891,0.13224 1.54059,0.3697 -0.0673,0.0461 -0.0862,0.0639 -0.1101,0.0746 -0.15181,0.0681 -0.44498,0.0316 -0.41994,0.22928 0.0278,0.21962 0.3099,0.13059 0.47726,0.13658 0.36857,0.0135 0.73456,0.006 1.11037,0.22542 -0.23976,0.0924 -0.43485,0.16397 -0.62603,0.24282 -0.0863,0.0356 -0.20191,0.0561 -0.18614,0.17324 0.0184,0.13703 0.1472,0.0859 0.23637,0.096 0.30379,0.0342 0.6082,0.064 0.91651,0.096 -0.0534,0.13478 -0.33199,0.0906 -0.26278,0.26534 0.0571,0.14391 0.22686,0.0539 0.34329,0.0766 0.19174,0.0376 0.38475,0.0699 0.67497,0.12177 -0.36408,0.16499 -0.63544,0.27791 -0.89266,0.40963 -0.10412,0.0532 -0.2474,0.11788 -0.21706,0.24925 0.0378,0.16416 0.21079,0.0856 0.32269,0.0922 0.47962,0.0281 0.98033,-0.0712 1.42208,0.1475 -0.0244,0.15101 -0.31081,0.1279 -0.2428,0.28726 0.0615,0.1439 0.24772,0.13762 0.40511,0.15714 0.11264,0.0135 0.22012,0.0522 0.33233,0.0709 0.14137,0.0235 0.26189,0.095 0.29177,0.19516 0.0316,0.10576 -0.10427,0.16931 -0.21512,0.19773 -0.16319,0.0419 -0.20066,0.13927 -0.24346,0.25891 -0.0351,0.0983 -0.0945,0.22281 -0.25763,0.21769 -0.36132,-0.012 -0.72505,0.0495 -1.08138,-0.0779 -1.19481,-0.42713 -2.38106,-0.8738 -3.60997,-1.2308 -1.63874,-0.47606 -3.33124,-0.78308 -5.01919,-1.11488 -1.22009,-0.23981 -2.44697,-0.27399 -3.67503,-0.3304 -1.34962,-0.0619 -2.68374,0.10292 -3.9932,0.39159 -0.19357,0.0426 -0.37652,0.0724 -0.44955,0.24217 -0.0558,0.12955 0.0241,0.23534 0.13523,0.32526 0.1755,0.14196 0.37842,0.0713 0.53458,0.004 0.27474,-0.11758 0.55399,-0.1896 0.89847,-0.21576 -0.0865,0.10187 -0.14765,0.18177 -0.21898,0.2557 -0.0909,0.0942 -0.32771,0.15587 -0.20996,0.29884 0.0904,0.10965 0.24364,0.006 0.37677,-0.0553 0.13389,-0.0613 0.34258,-0.0738 0.46051,0.0105 0.10845,0.0773 -0.0637,0.19127 -0.0676,0.29755 -10e-4,0.0347 -0.0105,0.0803 -0.038,0.10053 -0.077,0.0561 -0.19545,0.11189 -0.0799,0.1958 0.089,0.0646 0.1815,-0.0217 0.27115,-0.0606 0.27813,-0.12057 0.56645,-0.2199 0.88302,-0.24668 0.0618,0.23867 -0.2496,0.38128 -0.20095,0.60477 0.15266,0.007 0.17973,-0.11249 0.26858,-0.13523 0.25478,-0.0652 0.3457,-0.3757 0.68335,-0.30851 0.001,-0.009 0.001,-0.0161 0.003,-0.0245 0.001,0.006 0.003,0.012 0.006,0.0173 -0.16072,0.16034 -0.28835,0.33551 -0.38193,0.55133 0.31338,0.025 0.50227,-0.22177 0.79414,-0.18035 -0.11489,0.28481 -0.34932,0.49293 -0.52106,0.74519 0.5312,-0.30334 1.23237,-0.28958 1.70935,-0.67111 10e-4,0.004 0.003,0.007 0.004,0.012 0,5.3e-4 -0.001,8.7e-4 -0.001,10e-4 h 0.001 c 0.0135,0.028 0.0307,0.0558 0.0316,0.0844 0.006,0.17048 -0.30424,0.36064 -0.083,0.47855 0.15721,0.0838 0.36504,-0.13837 0.54488,-0.23251 0.0135,-0.007 0.0476,0.0105 0.0896,0.0226 -0.0423,0.0758 -0.0859,0.14929 -0.12491,0.22413 -0.0526,0.10083 -0.23369,0.20566 -0.10112,0.30529 0.0938,0.0705 0.26615,5.2e-4 0.40641,-0.0405 0.26698,-0.0782 0.51514,-0.21172 0.86433,-0.2338 -0.23396,0.3722 -0.0543,0.4335 0.3259,0.30207 -0.007,0.13583 -0.16379,0.25871 -0.0167,0.32718 0.11473,0.0534 0.23062,-0.0634 0.33812,-0.12491 0.30084,-0.17194 0.56263,-0.39388 0.91586,-0.49981 0.003,0.10621 -0.14615,0.20059 -0.0271,0.31753 0.18915,-0.0356 0.3739,-0.0838 0.51009,-0.21383 l 0.12566,6.9e-4 c -0.0423,5.2e-4 -0.0851,5.2e-4 -0.12761,0.001 0.0156,0.0201 0.0497,0.0446 0.0444,0.0592 -0.1512,0.41848 -0.7758,0.74729 -1.28619,0.68142 -0.14077,-0.0181 -0.28208,-0.0359 -0.42379,-0.047 -0.10098,-0.007 -0.22901,-0.0203 -0.23509,0.10053 -0.004,0.0749 -0.0266,0.10381 -0.0592,0.11144 -0.0477,0.0105 -0.11683,-0.0223 -0.17906,-0.0232 -0.88551,-0.012 -1.77168,-0.12282 -2.65611,0.0251 -0.14705,0.0245 -0.30034,0.0157 -0.33878,0.17132 -0.0769,0.31125 -0.37205,0.40471 -0.68721,0.48755 -0.55581,0.14616 -1.10885,0.30012 -1.66362,0.44892 -0.11324,0.0304 -0.28893,0.0746 -0.26407,0.1578 0.0947,0.31648 -0.24143,0.41147 -0.40768,0.58223 -0.19643,0.20172 -0.42537,0.36885 -0.0489,0.58932 0.11115,0.0651 0.0727,0.14226 0.0368,0.22606 -0.0784,0.18267 0.0281,0.23923 0.23637,0.2396 0.10666,3.5e-4 0.23463,-0.0383 0.32203,0.0612 -0.0277,0.1466 -0.16512,0.2249 -0.27373,0.31882 -0.21251,0.18372 -0.43226,0.36159 -0.64021,0.54873 -0.0915,0.0823 -0.15083,0.1917 -0.0966,0.30271 0.0598,0.12237 0.20053,0.0679 0.3098,0.0631 0.1493,-0.006 0.3547,-0.0235 0.33877,0.13523 -0.038,0.37911 0.25794,0.32508 0.53394,0.33491 0.14361,0.004 0.3236,10e-4 0.42185,0.0676 0.45863,0.31063 0.77686,0.13883 1.07624,-0.1739 0.0178,-0.0187 0.0682,-0.0157 0.13972,-0.0302 -0.0408,0.12865 -0.10053,0.23146 -0.10053,0.33426 0,0.18484 -0.16521,0.39343 0.0251,0.55068 0.21769,0.17984 0.0835,0.26965 -0.0793,0.37292 -0.11444,0.0727 -0.23886,0.13747 -0.28209,0.26277 0.39385,0.14525 0.39952,0.15915 0.0889,0.41477 -0.26004,0.214 -0.53665,0.41431 -0.78769,0.63505 -0.0732,0.0645 -0.26391,0.19413 0.0232,0.25763 0.20269,0.0449 0.52992,-0.0998 0.5919,0.0818 0.0556,0.16298 -0.28697,0.27206 -0.41155,0.4341 -0.0235,0.0307 -0.0522,0.0583 -0.0746,0.0894 -0.0582,0.0806 -0.17911,0.16876 -0.0953,0.25699 0.0817,0.086 0.22129,0.0209 0.32461,-0.0135 0.34242,-0.11189 0.67879,-0.2384 1.10392,-0.21447 -0.15057,0.24746 -0.46791,0.37817 -0.47146,0.69045 0.60314,-0.19974 1.00082,-0.61795 1.63271,-0.82376 -0.13418,0.4047 -0.25393,0.74957 -0.3594,1.09748 -0.026,0.0857 -0.0797,0.2076 0.0528,0.25956 0.0926,0.0364 0.19305,-0.0319 0.27372,-0.0844 0.34537,-0.22508 0.68677,-0.45503 1.03566,-0.67628 0.15887,-0.10067 0.28906,-0.1264 0.29884,0.10621 0.0105,0.22979 0.0473,0.45912 0.0715,0.68851 0.0428,0.40419 0.0697,0.40705 0.50753,0.21448 0.41017,-0.18043 0.76264,-0.45539 1.26751,-0.57902 -0.0507,0.33225 -0.10292,0.5799 -0.5365,0.64922 -0.34027,0.0544 -0.66281,0.18066 -0.99766,0.26277 -0.3739,0.0917 -0.54418,0.25974 -0.36968,0.58417 0.1104,0.20536 0.031,0.28991 -0.24089,0.27825 -0.2783,-0.012 -0.55771,-0.003 -0.83664,-0.007 -0.18542,-0.003 -0.30592,0.0479 -0.20288,0.21189 0.23666,0.37668 -0.012,0.53457 -0.38194,0.69495 -0.2729,0.11803 -0.54931,0.2276 -0.83533,0.31172 -0.25465,0.0749 -0.40248,0.17904 -0.38323,0.41156 0.0229,0.27707 -0.10591,0.48738 -0.38192,0.6518 -0.1893,0.11279 -0.343,0.2659 -0.52749,0.38514 -0.12701,0.0821 -0.19179,0.20929 -0.0922,0.27631 0.41902,0.28168 0.12027,0.4784 -0.0883,0.6885 -0.3112,0.31365 -0.29832,0.35061 0.1694,0.46243 0.34505,0.0824 0.72175,0.051 1.03823,0.24282 0.54115,0.32805 0.57094,0.33993 1.06915,-0.0354 0.32383,-0.24397 0.58806,-0.36206 0.94033,-0.0637 0.0516,0.0437 0.17854,0.0742 0.24216,0.0528 0.51194,-0.17208 1.01509,-0.0766 1.52321,0.004 0.14301,0.023 0.28606,-10e-4 0.42186,-0.0637 0.29165,-0.13404 0.59457,-0.25156 0.88559,-0.38644 0.9625,-0.44615 1.92197,-0.89715 2.98717,-1.39504 -0.13373,0.21679 -0.20828,0.3545 -0.30014,0.48369 -0.3918,0.55086 -0.764,1.1095 -1.08846,1.69066 -0.79465,1.42334 -1.43341,2.89579 -2.04168,4.37835 -0.78824,1.92121 -1.58298,3.84088 -2.36308,5.76437 -0.76314,1.88167 -1.38314,3.79896 -2.06679,5.70061 -0.61825,1.71971 -1.26211,3.43371 -1.98307,5.12674 -1.07369,2.52132 -2.29079,4.98283 -4.22763,7.15426 -1.16631,1.26193 -1.99311,2.82472 -3.20482,3.70816 l 2.28901,0.0625 m 23.9025,-51.00469 c 0.004,0.007 0.002,0.0197 0.003,0.0302 -0.0159,-0.007 -0.0317,-0.0159 -0.0477,-0.0238 0.0287,-0.0135 0.0404,-0.0135 0.045,-0.006 z m 0.0206,0.0522 c 0.11863,0.0105 0.1496,0.0886 0.22026,0.17904 -0.17451,-0.0186 -0.21423,-0.0885 -0.22026,-0.17904 z m 5.96725,0.14869 c 0.0844,0.0105 0.16039,0.0459 0.16488,0.1288 0.003,0.0645 -0.0697,0.0598 -0.11265,0.0748 -0.098,0.004 -0.1279,-0.0431 -0.12371,-0.10756 0.003,-0.0396 -0.015,-0.10606 0.0715,-0.096 z m -5.59241,0.24218 c 0.12371,0.0181 0.21507,0.0666 0.2222,0.17776 0.004,0.0661 -0.0715,0.08 -0.12042,0.0573 -0.10666,-0.0495 -0.1892,-0.11788 -0.10172,-0.23508 z m 0.47854,0.54037 c 0.0446,-0.007 0.0842,-0.006 0.11983,0.003 0.0712,0.0169 0.12595,0.0633 0.17004,0.13388 0.26554,0.4261 0.64194,0.78415 1.0189,1.14193 0.0376,0.0356 0.0675,0.079 0.0908,0.12237 0.072,0.13358 0.26556,0.29036 0.0335,0.40575 -0.21199,0.10546 -0.28509,-0.0899 -0.37614,-0.20739 -0.40069,-0.51698 -0.80244,-1.03282 -1.20568,-1.55154 0.0549,-0.0244 0.10427,-0.0404 0.1487,-0.0477 z m -15.69004,1.19925 c -10e-4,0.003 -0.003,0.006 -0.004,0.009 -0.003,-10e-4 -0.006,-10e-4 -0.007,-0.003 0.003,-0.003 0.009,-0.004 0.012,-0.007 z m 3.31629,0.49528 c 0.0566,0.0527 0.009,0.048 -0.0265,0.0509 0.009,-0.017 0.0175,-0.0338 0.0265,-0.0509 z m -0.0458,0.0645 c -0.001,0.0383 -0.0253,0.0574 -0.0715,0.0579 0.001,-0.0383 0.0254,-0.0576 0.0715,-0.0579 z m 1.73189,0.47274 c 0,0 0.0193,0.012 0.0193,0.012 l -0.0257,-0.004 c 0.001,-0.003 0.004,-0.004 0.006,-0.007 z m -0.007,0.009 c 0.0414,0.0413 0.0431,0.0793 -0.0187,0.1101 -0.21322,0.22131 -0.34217,0.52144 -0.86369,0.59577 0.26363,-0.30685 0.5159,-0.48998 0.82247,-0.62797 0.0199,-0.0259 0.0399,-0.0521 0.0598,-0.0779 z m -0.083,0.70525 c 0.007,0.0239 0.026,0.0492 0.0187,0.0676 -0.006,0.0135 -0.0435,0.0193 -0.067,0.0284 -0.007,-0.0183 -0.0263,-0.0422 -0.0187,-0.0534 0.012,-0.0182 0.0425,-0.0281 0.067,-0.0425 z m 8.3213,2.5608 c -0.001,0.003 -0.004,0.007 -0.006,0.0105 -0.003,-10e-4 -0.006,-0.002 -0.009,-0.003 0.004,-0.003 0.0105,-0.004 0.015,-0.007 z m -0.14301,0.0793 c 0.0163,0.0156 0.0326,0.0314 0.0489,0.047 -0.012,0.004 -0.0253,0.0105 -0.038,0.0154 -0.003,-0.0208 -0.007,-0.0416 -0.0105,-0.0625 z m 10.45058,2.40493 c 0.003,0.007 0.001,0.0189 0.001,0.029 -0.0175,-0.007 -0.0353,-0.016 -0.0528,-0.0238 0.0351,-0.0204 0.0471,-0.0166 0.0509,-0.004 z m -4.97089,0.98348 c 0.31817,0.58622 -0.71611,5.51084 -1.22436,6.18173 0.21433,-2.04451 0.71372,-4.07784 1.22436,-6.18173 z m 2.61619,0.64214 c 0.17626,-0.004 0.36836,0.14585 0.57258,0.16165 -0.16739,0.16053 -0.28022,0.43356 -0.57001,0.3433 -0.13493,-0.042 -0.28528,-0.34554 -0.17325,-0.43926 0.055,-0.0461 0.11189,-0.0645 0.17068,-0.0657 z m -6.39298,0.53973 c 0.12835,0.0705 0.012,0.10516 -0.0625,0.12491 -0.0369,0.0105 -0.083,-0.004 -0.16553,-0.009 0.0697,-0.091 0.15536,-0.15517 0.228,-0.11533 z m 1.57088,0.31558 c 0.0325,0.0522 0.079,0.10516 0.009,0.15909 -0.0178,0.0135 -0.0713,0.0233 -0.0766,0.0168 -0.0658,-0.08 0.0685,-0.1098 0.067,-0.17583 z m 3.64668,0.12431 c 0.16403,0.0471 0.31084,0.10142 0.2441,0.26213 -0.0135,0.0344 -0.10112,0.0815 -0.13134,0.0721 -0.19858,-0.0621 -0.0661,-0.21873 -0.11264,-0.33426 z m -15.9496,0.20481 c 0.0277,-0.0202 0.12162,-0.0105 0.15329,0.0135 0.063,0.048 0.025,0.10935 -0.0173,0.15972 -0.24454,0.29078 -0.59213,0.67967 -1.21406,0.51525 0.32434,-0.31528 0.75119,-0.45019 1.07815,-0.68851 z m 9.15408,0.0399 c 0.0425,0.52702 -0.21042,0.67546 -0.87012,0.56741 0.23151,-0.23577 0.54938,-0.3608 0.87012,-0.56741 z m 1.11038,1.16897 c 0.0827,0.0105 0.15957,0.0468 0.19321,0.11848 0.0651,0.13882 -0.15894,0.15131 -0.25634,0.17776 -0.39292,0.10666 -0.7742,0.23578 -1.15674,0.37227 0.26731,-0.28331 0.66389,-0.41416 0.98993,-0.62345 0.0583,-0.0376 0.1472,-0.0549 0.22994,-0.045 z m 7.9574,0.34264 c -0.0241,0.18138 -0.17396,0.25063 -0.27696,0.34586 -0.0806,0.0746 -0.19659,0.14196 -0.27951,0.0218 -0.064,-0.0928 -0.0609,-0.21371 0.10816,-0.25956 0.14361,-0.0389 0.29044,-0.0705 0.44826,-0.10816 z m -10.97291,0.16424 c 0.0655,0.007 0.13553,0.0211 0.21061,0.0405 -0.23306,0.24979 -0.45195,0.4693 -0.64664,0.70268 -0.0564,0.0675 -0.16677,0.16447 -0.0637,0.26148 0.10113,0.0953 0.2145,0.0251 0.31946,-0.0135 0.42336,-0.15622 0.83568,-0.33055 1.21729,-0.54939 0.19514,-0.1119 0.37743,-0.1496 0.59318,-0.0251 0.42316,0.24417 0.9597,0.2495 1.48906,0.46823 -0.37353,0.12731 -0.68059,0.22562 -0.97897,0.33878 -0.0799,0.0302 -0.21088,0.0364 -0.20674,0.15715 0.004,0.13852 0.1312,0.099 0.22285,0.1101 0.29423,0.0357 0.29217,0.12865 0.13463,0.32011 -0.48795,0.59267 -1.25101,0.87272 -1.99337,1.10779 -1.47631,0.46748 -2.70841,1.20902 -3.8515,2.08096 -0.0428,0.0326 -0.0862,0.0676 -0.13658,0.0902 -0.54082,0.24201 -1.04015,0.48797 -0.64663,1.11486 0.0863,0.13748 0.003,0.28824 -0.22543,0.37163 -0.44404,0.16237 -0.86942,0.35937 -1.34288,0.55904 -0.006,-0.33622 0.20001,-0.56444 0.3433,-0.80378 1.10468,-1.84522 2.54627,-3.50768 4.07821,-5.1203 0.33154,-0.34903 0.66712,-0.69568 0.99572,-1.04661 0.0899,-0.096 0.18929,-0.14675 0.304,-0.16359 v 6.9e-4 c 0.0574,-0.009 0.11862,-0.009 0.18421,-0.002 z m 11.00383,1.63463 c 0.0959,5.1e-4 0.1961,0.0105 0.30593,0.0162 -0.0745,0.20904 -0.29271,0.23266 -0.43088,0.3259 -0.0548,0.0369 -0.23084,0.17511 -0.30208,-0.012 -0.0431,-0.11324 -0.0368,-0.23038 0.14616,-0.29047 0.093,-0.0305 0.18488,-0.0396 0.28081,-0.0394 z m -0.36842,1.42144 c 0.006,0.0191 0.0105,0.0381 0.0162,0.0573 -0.0192,0.004 -0.0383,0.007 -0.0573,0.012 -0.001,-0.0105 -0.0105,-0.025 -0.004,-0.0316 0.012,-0.015 0.0299,-0.0251 0.0458,-0.0374 z m 0.21835,1.52322 c 0.044,-8.6e-4 0.0826,0.0105 0.1101,0.0573 0.0503,0.0848 -0.0648,0.12536 -0.12431,0.16295 -0.1582,0.10008 -0.32855,0.18635 -0.53523,0.30078 -0.0646,-0.33178 0.0292,-0.49172 0.40448,-0.50494 0.0513,-0.002 0.10083,-0.0153 0.14496,-0.0162 z m -0.11728,0.9268 c -0.20795,0.18838 -0.38628,0.30399 -0.67949,0.3594 0.0597,-0.34336 0.33007,-0.34552 0.67949,-0.3594 z m -5.59048,0.38644 c 0.0271,-0.009 0.0613,-0.009 0.10696,0.006 0.15557,0.0492 0.25634,0.16162 0.17969,0.32331 -0.13972,0.29488 -0.31883,0.5733 -0.60543,0.78512 -0.25244,0.18657 -0.34155,0.38897 -0.18034,0.64084 0.1849,0.28889 0.0561,0.47435 -0.23379,0.66146 -0.60983,0.3936 -0.59936,0.40419 -0.006,0.81346 0.0319,0.022 0.0575,0.0497 0.10247,0.0889 -0.61095,0.12985 -1.17353,0.33162 -1.8169,0.57709 0.76041,-1.11696 1.46197,-2.15723 2.07131,-3.23707 0.0859,-0.15223 0.15103,-0.31325 0.24733,-0.46051 0.0398,-0.061 0.0534,-0.17131 0.13463,-0.19836 z m -3.83539,0.90492 c -0.0105,0.28612 -0.23266,0.30929 -0.47726,0.36582 0.10367,-0.19373 0.298,-0.23541 0.47726,-0.36582 z"
     id="path13"
     transform="translate(636.33982,-99.641731)" /><path
     style="display:inline;fill:#1e1e2c;fill-opacity:1;stroke-width:0.999998"
     d="m 240.05214,526.526 c -0.14481,-0.0226 -0.31203,0.0208 -0.47403,0.10815 -1.88203,1.01501 -3.81404,1.94241 -5.49966,3.29118 -0.6964,0.55721 -1.04846,1.17992 -0.76901,2.08805 0.0951,0.30926 0.20081,0.65376 -0.0168,1.07108 -0.36897,-0.69955 -0.74319,-1.13235 -1.55027,-0.5114 -1.07147,0.82439 -1.11174,0.77245 -0.52298,2.02108 -1.02705,-0.56942 -1.39914,0.12356 -1.77117,0.78641 -1.1227,2.00009 -2.23104,4.00859 -3.3575,6.00654 -0.23582,0.41826 -0.45302,0.86042 -0.89332,1.23015 -0.40097,-0.47349 -0.24357,-1.00404 -0.26986,-1.48649 -0.073,-1.3406 -0.17034,-1.45682 -1.47426,-1.32871 -0.56461,0.0555 -0.83428,-0.11085 -0.9442,-0.68592 -0.19354,-1.01256 -0.47272,-2.00614 -0.53394,-3.04515 -0.0389,-0.66022 -0.66568,-1.08722 -1.43046,-0.67626 -1.22555,0.65857 -1.90279,0.10053 -2.70829,-0.67047 -0.80316,-0.76877 -1.72883,-1.40857 -2.58978,-2.11833 -0.40939,-0.33749 -0.8802,-0.1841 -1.32676,-0.20866 -0.96415,-0.053 -1.89278,0.082 -2.73664,0.59382 -0.41243,0.25012 -0.68379,0.52429 -0.2602,1.00861 0.12252,0.14002 0.13718,0.36927 0.22542,0.54551 0.2656,0.53008 0.0621,0.71884 -0.48175,0.77287 -1.37784,0.13688 -2.47768,0.83078 -3.4129,1.81047 -0.1724,0.1806 -0.40364,0.41519 -0.2441,0.67821 0.13059,0.2153 0.42302,0.1074 0.64214,0.0947 1.01352,-0.0591 1.03304,-0.0387 0.70654,0.95579 -0.0803,0.24485 -0.16333,0.48945 -0.26085,0.72779 -0.18558,0.45342 -0.0933,0.78448 0.39095,0.96222 0.95042,0.34884 1.71562,0.86551 1.97019,1.94379 0.061,0.25816 0.3663,0.37832 0.67626,0.44955 1.03232,0.23724 2.04435,0.56477 3.12435,0.53135 0.19925,-0.006 0.44806,-0.0518 0.35811,0.36713 -0.37071,1.72655 -0.34441,1.75017 1.39762,2.44679 -1.02427,0.35477 -1.94787,-0.21975 -2.90666,-0.37097 -1.75246,-0.2764 -3.50851,-0.50957 -5.26909,-0.7117 -2.23239,-0.25628 -4.47709,-0.20801 -6.71888,-0.19643 -4.40884,0.0227 -8.54998,0.95686 -12.38341,3.2699 -3.43574,2.07309 -6.59839,4.39944 -8.87713,7.76742 -0.0483,0.0714 -0.11204,0.13359 -0.15264,0.20867 -0.21142,0.39055 -0.74136,0.75396 -0.47339,1.20827 0.23799,0.40349 0.79432,0.0984 1.20633,0.14495 2.24107,0.25304 3.82639,-0.75058 5.08425,-2.53246 0.88283,-1.25062 1.91748,-2.39105 3.03933,-3.51079 0.14376,0.42984 -0.5151,0.73454 -0.12939,0.97512 0.41495,0.25887 0.63163,-0.26421 0.85595,-0.52749 0.51467,-0.60409 0.99308,-1.2389 1.55929,-1.95345 0.16046,0.9311 -0.10936,1.69121 -0.23444,2.46484 -0.0392,0.24231 -0.17374,0.5505 0.11593,0.68978 0.25227,0.12132 0.39232,-0.17352 0.55647,-0.31816 1.05223,-0.9272 1.92767,-2.02989 2.94337,-3.1089 0.26816,0.5825 0.31076,1.0764 0.26728,1.58955 -0.0135,0.16521 -0.0341,0.3627 0.14495,0.45986 0.19269,0.10457 0.3572,-0.0242 0.4328,-0.17131 0.75359,-1.46588 1.81207,-0.91916 2.87705,-0.46438 0.81946,0.34996 1.63893,-0.0176 2.45645,-0.0709 0.29981,-0.0194 0.59027,-0.16278 0.98606,0.0367 -1.28145,1.25456 -2.36503,2.61077 -3.32724,4.06921 -1.76644,2.67735 -2.43166,5.65693 -2.49059,8.80949 -0.004,0.21589 -0.14824,0.57976 0.25054,0.61638 0.33183,0.0305 0.39274,-0.26846 0.45793,-0.52492 0.0423,-0.16647 0.0755,-0.34155 0.15457,-0.49078 0.14182,-0.26791 0.0206,-0.78703 0.33814,-0.79991 0.48888,-0.0199 0.71511,0.49194 1.00281,0.84371 0.26606,0.32532 0.1276,0.53891 -0.0986,0.81604 -2.37336,2.90877 -3.98532,6.22462 -5.16605,9.76528 -0.1255,0.3763 -0.25225,0.68081 0.0168,1.16576 0.25169,0.45374 0.0171,1.17184 0.015,1.77376 -0.001,0.40125 0.0561,0.80369 0.0405,1.20375 -0.0307,0.78953 0.0781,1.18106 0.96222,0.59641 0.64945,-0.42944 0.71014,0.24578 0.60414,0.57063 -0.33552,1.0281 0.25589,1.74758 0.66403,2.55951 0.37362,0.74326 0.83613,0.72259 1.35382,0.24089 0.51118,-0.47565 1.09275,-0.70147 1.77439,-0.74713 0.45348,-0.0304 0.67581,0.0756 0.45921,0.57322 -0.10232,0.23515 -0.17889,0.48254 -0.25375,0.72844 -0.10995,0.36082 -0.47671,0.79245 0.015,1.06785 0.49252,0.27595 1.04161,0.70232 1.6475,0.16102 0.10382,-0.0927 0.27414,-0.25333 0.34266,-0.22285 1.0966,0.48824 1.17208,-0.3424 1.33449,-1.02792 0.33081,-0.0606 0.34595,0.21944 0.39997,0.37228 0.24332,0.68864 0.64763,0.80809 1.33707,0.59253 0.77441,-0.24213 0.63413,-0.74751 0.54939,-1.292 -0.0923,-0.59325 -0.17621,-1.18789 -0.20031,-1.80209 0.36754,0.39494 0.50061,0.89564 0.6782,1.37315 0.25115,0.67534 0.68003,0.91778 1.28942,0.4399 0.57084,-0.44767 0.72688,-0.25647 0.7104,0.36647 -0.0352,1.32579 -0.20321,2.79809 0.32783,3.92106 1.08605,2.29676 1.11783,4.89028 2.30188,7.12012 0.12296,0.23143 0.15788,0.65635 0.54746,0.53908 0.37205,-0.11204 0.19599,-0.48213 0.18355,-0.75291 -0.009,-0.20063 -0.0398,-0.40023 -0.0618,-0.60027 -0.0465,-0.42192 0.0655,-0.58412 0.52878,-0.41799 0.67581,0.24237 0.99719,0.0847 0.73165,-0.7162 -0.0815,-0.24599 -0.26153,-0.72978 0.21834,-0.76064 0.51991,-0.0334 1.14567,-0.20511 1.55606,0.23186 0.20086,0.21387 -0.15685,0.51339 -0.31173,0.73294 -1.98339,2.8113 -3.99657,5.60215 -5.96982,8.4205 -4.18258,5.97379 -8.21347,12.04384 -11.94288,18.31718 -5.02973,8.46063 -9.11372,17.37391 -12.95019,26.41497 -1.55569,3.66614 -2.97279,7.39089 -4.65593,11.00318 -0.468,1.00439 -1.05012,1.94706 -1.46138,2.98846 -0.27175,0.68805 -1.28871,0.25314 -1.86424,0.71414 l 7.23831,-0.43977 c 0.54097,-4.4535 2.11312,-8.62988 3.80061,-12.76534 3.11741,-7.63963 6.79852,-15.01419 10.76488,-22.24274 4.54407,-8.28136 9.42275,-16.36753 14.70076,-24.20198 2.78976,-4.14101 5.86525,-8.09184 8.22469,-12.51416 0.60407,-1.13223 1.1615,-2.28908 1.86006,-3.67116 0.0658,1.02095 0.111,1.79763 0.16681,2.57368 0.13808,1.92127 0.29076,3.83969 0.5423,5.75213 0.0832,0.63267 0.29268,1.08709 0.78834,1.42853 0.5408,0.37259 0.9228,0.84943 1.04402,1.50325 0.0772,0.4163 0.32926,0.64715 0.71749,0.75227 0.72785,0.19707 0.92736,0.65348 0.69237,1.34931 -0.0539,0.15969 -0.0504,0.34057 -0.0598,0.51268 -0.0347,0.6314 0.0901,1.10231 0.8579,1.2353 0.73457,0.1273 1.22534,0.67463 1.68744,1.23984 0.20787,0.25426 0.49229,0.58026 0.86176,0.46693 0.33291,-0.10217 0.29195,-0.50367 0.37163,-0.80186 0.1451,-0.54326 0.21207,-1.18385 1.08589,-0.93388 0.35613,0.10187 0.50025,-0.16664 0.52747,-0.5056 0.0346,-0.42983 0.0884,-0.85803 0.14107,-1.28619 0.0679,-0.55232 0.19246,-1.04233 0.77288,-1.33642 0.48021,-0.24333 0.62019,-0.66168 0.44312,-1.23984 -0.19122,-0.62437 -0.25145,-1.29132 -0.33942,-1.94378 -0.0794,-0.58905 -0.012,-1.09906 0.75291,-1.18186 0.6193,-0.067 0.6047,-0.40623 0.29241,-0.82183 -0.27581,-0.36702 -0.55239,-0.73376 -0.84437,-1.08781 -0.26858,-0.32568 -0.4025,-0.62434 0.16295,-0.72523 1.02964,-0.1837 1.08829,-0.80105 0.79928,-1.62947 -0.19819,-0.56808 -0.34834,-1.15291 -0.52299,-1.72932 -0.0332,-0.1098 -0.10352,-0.21243 -0.11728,-0.32331 -0.0702,-0.56739 0.31147,-1.09398 0.69495,-1.14386 0.5036,-0.0655 0.25169,0.55529 0.29048,0.87014 0.07,0.56892 0.0754,1.14683 0.0844,1.72158 0.012,0.73798 0.37481,0.81447 0.93195,0.50816 0.47408,-0.26063 0.95675,-0.51632 1.39247,-0.83342 0.50837,-0.36999 0.58712,-0.12102 0.56034,0.32976 -0.0461,0.77532 -0.11564,1.54894 -0.15715,2.32442 -0.0135,0.23879 -0.16465,0.57113 0.11983,0.69495 0.31332,0.13642 0.5167,-0.15954 0.6988,-0.38 0.40001,-0.48426 0.78801,-0.97818 1.19152,-1.45945 0.10127,-0.12087 0.15759,-0.32334 0.43667,-0.28017 0.21233,0.87565 -0.13688,1.79555 0.10621,2.67996 0.0473,0.17191 -0.10621,0.46031 0.18742,0.48755 0.32887,0.0305 0.29374,-0.27453 0.34136,-0.49206 0.0528,-0.24136 0.0453,-0.51022 0.29562,-0.71943 0.50918,0.46125 0.53809,1.11759 0.72458,1.6997 0.0759,0.23671 0.0217,0.55473 0.38837,0.57256 0.37534,0.0182 0.35859,-0.33799 0.43346,-0.54938 0.14226,-0.40144 0.21323,-0.82826 0.32396,-1.28749 0.38053,0.012 0.5039,0.34855 0.68206,0.62024 0.12087,0.18427 0.17399,0.47884 0.46501,0.4386 0.30711,-0.0425 0.23893,-0.34123 0.2879,-0.55325 0.21208,-0.91808 0.2696,-1.87056 0.6241,-2.81585 0.59098,0.6637 0.79926,0.3359 0.85016,-0.32331 0.0347,-0.44994 0.15293,-0.67961 0.71298,-0.71234 0.66845,-0.039 0.99433,-0.73933 1.46332,-1.14127 0.073,0.0513 0.15182,0.0899 0.1475,0.10621 -0.25649,0.96859 -0.17411,1.75208 0.96738,2.10738 0.22662,0.0705 0.38634,0.41254 0.53844,0.65372 0.24975,0.39594 0.44944,0.7049 0.99572,0.31688 0.49874,-0.35424 0.6569,0.13328 0.74003,0.48755 0.10082,0.4296 0.27133,0.66894 0.7542,0.60929 0.50462,-0.0624 0.56454,-0.38629 0.55841,-0.80122 -0.0135,-0.93718 0.0788,-1.86392 0.23766,-2.83582 0.4258,0.24246 0.48239,0.61661 0.69108,0.8798 0.10187,0.1285 0.14855,0.33283 0.37162,0.30336 0.24819,-0.0328 0.19243,-0.24201 0.21061,-0.40061 0.0702,-0.61185 0.33794,-0.58592 0.69237,-0.20739 0.18867,0.20153 0.39639,0.37139 0.6724,0.27565 0.31172,-0.10816 0.22815,-0.43551 0.25569,-0.66853 0.0606,-0.5122 0.0676,-1.0312 0.0978,-1.54705 0.0135,-0.21884 0.0359,-0.4053 0.34972,-0.29369 0.70819,0.25192 0.47876,-0.22839 0.37872,-0.53071 -0.36905,-1.115 -0.7522,-2.22589 -1.14966,-3.33109 -0.24035,-0.66832 -0.44063,-1.31653 0.083,-1.95023 0.25981,-0.31437 0.0215,-0.59218 -0.0998,-0.87206 -0.65846,-1.51811 -1.83509,-2.69116 -2.72697,-4.05438 -0.12835,-0.19613 -0.40167,-0.23232 -0.0657,-0.47403 0.21176,-0.15236 0.0278,-0.27926 -0.0863,-0.40898 -0.22723,-0.25839 -0.39088,-0.60066 -0.66402,-0.78511 -0.69318,-0.46813 -0.6111,-1.09667 -0.45922,-1.75314 0.11474,-0.49589 0.26336,-0.98391 0.39675,-1.47362 0.1705,0.0877 0.17016,0.2685 0.19579,0.43732 0.0401,0.26419 -0.15002,0.64484 0.19322,0.75934 0.42921,0.14316 0.34465,-0.46174 0.71878,-0.57451 -0.16517,0.82551 -0.15341,1.64055 -0.15652,2.45454 -0.001,0.34876 -0.0546,0.79031 0.53458,0.44891 0.0974,-0.0565 0.1647,-0.10157 0.28403,0.009 0.45623,0.42017 0.4639,0.41191 0.86305,0.0135 0.36148,0.48212 0.32798,1.08918 0.52104,1.6224 0.0748,0.20653 0.0387,0.49855 0.34135,0.53264 0.3113,0.035 0.31691,-0.25749 0.42896,-0.44827 0.12296,-0.20929 0.0865,-0.51886 0.37226,-0.63569 0.15727,0.10202 0.0802,0.25715 0.10756,0.38323 0.0736,0.33923 -0.21412,0.88251 0.19644,0.9809 0.37115,0.0889 0.47464,-0.49159 0.6988,-0.77481 0.0332,-0.042 0.0905,-0.0655 0.18936,-0.13404 0.22464,0.34356 0.15136,0.72895 0.1089,1.06399 -0.0841,0.66235 0.43901,1.13964 0.45922,1.78212 0.009,0.30323 0.31292,0.2188 0.45277,-0.0625 0.14765,-0.2968 0.20389,-0.64993 0.49528,-0.87915 0.44709,1.07104 0.54076,1.08626 1.33709,0.1276 0.016,0.2928 0.0392,0.50274 0.0367,0.71235 -0.006,0.5652 0.0135,1.06428 0.67111,0.35359 0.19936,-0.21537 0.30444,-0.0694 0.35938,0.10307 0.0866,0.27174 0.10831,0.56593 0.20804,0.83149 0.10142,0.26985 -3.4e-4,0.68169 0.42058,0.75741 0.36853,0.0663 0.47419,-0.244 0.61958,-0.49142 0.0389,-0.0661 0.13134,-0.10053 0.20481,-0.15329 0.0601,0.0779 0.11279,0.14585 0.16488,0.21384 0.25557,0.33301 0.26818,1.00285 0.71427,0.99057 0.50007,-0.0135 0.21794,-0.7467 0.61636,-1.10457 0.45928,0.83495 0.54966,1.76516 0.64407,2.6368 0.0998,0.92077 0.68302,0.91924 1.28684,0.96093 0.31751,0.0218 0.27109,-0.31018 0.28533,-0.52878 0.0598,-0.91786 -0.24602,-1.75787 -0.59448,-2.57817 -2.20364,-5.18757 -5.62952,-9.44162 -9.83227,-13.15887 -3.67428,-3.24983 -7.63617,-6.07347 -11.83918,-8.57442 -0.71085,-0.42299 -1.00517,-1.1533 -1.51484,-1.72094 -0.16942,-0.18868 -0.10786,-0.46427 0.0528,-0.64084 0.27616,-0.30356 0.31678,-0.61745 0.26599,-1.01827 -0.07,-0.55306 0.23015,-0.57961 0.61122,-0.29562 0.22897,0.17061 0.44741,0.35831 0.65502,0.55453 0.23552,0.22263 0.47961,0.47049 0.82376,0.36133 0.36831,-0.11683 -0.0259,-0.53566 0.27372,-0.76451 0.68724,0.55171 1.17319,1.28489 1.69002,1.99595 0.15225,0.20947 0.22148,0.61482 0.60736,0.49657 0.43933,-0.13463 0.21786,-0.53627 0.21768,-0.81022 -3.4e-4,-0.54387 -0.0754,-1.08807 -0.13388,-1.8124 0.4474,0.48069 0.79874,0.84681 1.13548,1.22566 0.15366,0.17286 0.31237,0.44632 0.54294,0.31559 0.24321,-0.13792 0.0307,-0.40097 -0.015,-0.61315 -0.0248,-0.11578 0.003,-0.24243 0.0135,-0.36454 0.39518,0.47699 0.79271,0.95218 1.18314,1.43303 0.12925,0.15912 0.25299,0.3551 0.48241,0.28017 0.31908,-0.10426 0.16736,-0.38122 0.13777,-0.58029 -0.0667,-0.44939 -0.16907,-0.89341 -0.26793,-1.39505 0.80157,0.27647 1.1296,0.98829 1.65009,1.48328 0.23982,0.22808 0.43392,0.69155 0.80959,0.4605 0.29253,-0.17988 0.055,-0.56811 -0.0489,-0.85983 -0.0247,-0.069 0.006,-0.15781 0.0154,-0.29562 0.9068,0.42951 1.54583,1.11578 2.2027,1.77891 0.23651,0.23877 0.43662,0.61253 0.84243,0.44054 0.38432,-0.16289 0.15676,-0.55186 0.18678,-0.83792 0.0323,-0.30861 0.007,-0.62305 0.007,-1.0537 0.86499,0.5242 1.58158,1.06528 2.26195,1.65654 0.17878,0.15535 0.35545,0.33278 0.60543,0.22349 0.32632,-0.14271 0.0784,-0.40062 0.0746,-0.6022 -0.007,-0.41757 -0.27391,-0.80462 -0.16167,-1.23983 0.43774,0.0624 0.46117,0.51835 0.71235,0.75678 0.21016,0.1995 0.24195,0.69021 0.64341,0.56098 0.4182,-0.13464 -0.18646,-0.51191 0.12565,-0.74325 0.39581,0.28563 0.61987,0.74396 0.90234,1.15416 0.16078,0.23348 0.3229,0.58574 0.64277,0.45214 0.39313,-0.16419 -0.004,-0.48177 0.0105,-0.7336 0.007,-0.12206 -0.0933,-0.25046 -0.1913,-0.48819 0.70436,0.21532 1.01042,0.74317 1.43434,1.11745 0.16201,0.14301 0.29118,0.41602 0.5642,0.27887 0.26253,-0.13194 0.11174,-0.40571 0.13523,-0.61765 0.0404,-0.36559 -0.23881,-0.71122 -0.0573,-1.14579 0.5291,0.5194 0.64258,1.2126 0.91907,1.81498 0.13853,0.30195 0.14855,0.80094 0.50365,0.80764 0.45196,0.009 0.12416,-0.57841 0.38065,-0.8025 0.38411,-0.0444 0.52024,0.72844 0.89783,0.3813 0.25758,-0.23684 -0.0476,-0.69787 -0.0824,-1.06015 -0.0174,-0.18039 -0.11848,-0.35254 -0.18742,-0.52619 0.79829,0.55514 0.98388,1.51332 1.48971,2.26067 0.11803,0.17445 0.13119,0.52399 0.43797,0.44182 0.34601,-0.0928 0.20339,-0.44419 0.17648,-0.65629 -0.0869,-0.68458 -0.20117,-1.36301 -0.0902,-2.10674 0.39769,0.15247 0.36359,0.56791 0.54938,0.82182 0.21565,0.29466 0.21132,0.83533 0.82247,0.47597 0.26332,-0.15483 0.26659,0.20439 0.39161,0.32138 0.23958,0.22427 0.36955,0.94711 0.79348,0.13404 0.0597,-0.11459 0.12251,-0.092 0.4985,0.38644 0.108,0.13732 0.1844,0.32569 0.38451,0.266 0.22196,-0.0663 0.13179,-0.28856 0.13014,-0.44119 -0.007,-0.62327 -0.17747,-1.17938 -0.68142,-1.59984 -3.04611,-2.54157 -6.31184,-4.76541 -9.99264,-6.25579 -2.27792,-0.92236 -4.71311,-1.37559 -7.1723,-1.66621 -1.9375,-0.22895 -3.88841,-0.2029 -5.82362,-0.42443 -0.16497,-0.0188 -0.39528,0.0718 -0.4341,-0.1282 -0.0661,-0.34047 0.18806,-0.23337 0.38708,-0.22285 0.25476,0.0135 0.21862,-0.21814 0.24087,-0.37355 0.0449,-0.31285 0.0685,-0.62879 0.10502,-0.94291 0.034,-0.29233 -0.11474,-0.67557 0.2557,-0.82182 0.33202,-0.13105 0.48867,0.23043 0.71168,0.38772 0.4381,0.30897 0.7622,0.91238 1.46267,0.48498 0.0881,-0.0537 0.30757,0.10083 0.46309,0.16617 0.52643,0.22105 1.04529,0.46266 1.57989,0.66145 0.2778,0.10337 0.65125,0.3573 0.86111,0.0503 0.19665,-0.28772 -0.33087,-0.41232 -0.38128,-0.76643 0.36864,-0.23033 0.77644,-0.20013 1.1767,-0.0592 0.29053,0.10232 0.53813,0.0172 0.70074,-0.17776 0.20497,-0.24577 -0.0922,-0.40706 -0.20804,-0.57966 -0.33111,-0.49323 -0.68202,-0.97335 -1.0408,-1.48069 0.3456,-0.11922 0.55072,0.0769 0.78382,0.16229 0.15378,0.0564 0.39142,0.15549 0.40255,-0.0978 0.0396,-0.90223 0.58299,-0.44746 0.94355,-0.34909 0.52181,0.14241 1.01422,0.39864 1.5393,0.51912 0.27491,0.0631 0.83108,0.54726 0.81024,-0.3246 -0.006,-0.21999 0.24318,-0.11863 0.40641,-0.0998 1.8435,0.21205 1.57003,0.36631 2.3592,-1.29586 0.0615,-0.12939 0.11489,-0.26256 0.17841,-0.39094 0.41507,-0.83983 0.36283,-0.92394 -0.54809,-1.09877 -2.21874,-0.4258 -4.45505,-0.71318 -6.70342,-0.93067 -0.94835,-0.0917 -1.41555,-1.01596 -2.17694,-1.45494 -0.20506,-0.11817 0.0536,-0.30412 0.17969,-0.37936 0.24249,-0.14466 0.53107,-0.217 0.76129,-0.37614 0.22134,-0.15297 0.69275,-0.089 0.6447,-0.44182 -0.0461,-0.33863 -0.46375,-0.38668 -0.77416,-0.42379 -1.79403,-0.21447 -3.58339,-0.43136 -5.40241,-0.37485 -2.09951,0.0652 -4.15663,0.32593 -6.17528,0.91006 -0.35169,0.10172 -0.96788,0.51027 -0.72715,-0.44955 0.0615,-0.24501 -0.18201,-0.39246 -0.37291,-0.53264 -0.36279,-0.26641 -0.71304,-0.55022 -1.15673,-0.89525 0.79442,-0.10142 1.38649,0.36764 2.06808,0.31495 0.44138,-0.0341 0.65249,-0.11713 0.70847,-0.62217 0.0727,-0.65621 0.20238,-1.30948 0.15264,-1.9689 -0.0452,-0.59947 0.23583,-0.84271 0.78124,-0.88751 0.0573,-0.004 0.11624,-7.1e-4 0.17262,-0.0105 1.29626,-0.2211 1.29611,-0.22143 1.26688,-1.55863 -0.0323,-1.47664 -0.0353,-1.49168 1.45043,-1.76796 0.48329,-0.0899 0.51503,-0.32289 0.42315,-0.73101 -0.21507,-0.95519 -0.95049,-1.15645 -1.7525,-1.22694 -0.60298,-0.053 -1.11318,-0.15251 -1.38087,-0.80316 -0.0722,-0.17559 -0.19464,-0.26406 -0.33943,-0.2866 z m -4.80986,12.45239 c 0.12685,0.0393 0.23254,0.1466 0.3478,0.22349 -0.10547,0.0809 -0.1996,0.19285 -0.31881,0.23508 -0.17148,0.0607 -0.24892,-0.0664 -0.27825,-0.2222 0.004,-0.16268 0.0685,-0.29244 0.24926,-0.23637 z m -19.21177,7.31399 c 0.0105,0.004 0.0135,0.006 0.0238,0.0105 -10e-4,-8.7e-4 -0.0489,0.0218 -0.0489,0.0218 z m 19.4623,1.47233 c 0.44556,-0.0293 0.8734,0.0942 1.33966,0.0322 0.79919,-0.10636 1.61345,0.16735 2.43457,0.038 0.24768,-0.0391 0.43571,0.2013 0.45084,0.43731 0.0159,0.2474 -0.24252,0.20575 -0.38902,0.19257 -1.29506,-0.11653 -2.56625,0.23266 -3.85923,0.17455 -0.35479,-0.016 -0.84702,0.0501 -0.84436,-0.44891 0.003,-0.54329 0.51316,-0.40242 0.86754,-0.42573 z m 5.32384,0.1784 c 0.18259,0.0168 0.34045,0.10322 0.33492,0.29241 -0.007,0.23064 -0.21956,0.20048 -0.37871,0.20931 -0.15438,0.009 -0.27423,-0.0477 -0.27889,-0.22285 -0.006,-0.21579 0.1291,-0.28391 0.32268,-0.27887 z m -7.26246,0.0283 c 0.0154,-0.003 0.0366,0.0275 0.0554,0.0425 -0.0404,0.0192 -0.0812,0.038 -0.11788,0.0553 -0.0208,-0.0196 -0.0378,-0.0356 -0.0554,-0.0522 0.039,-0.0162 0.0772,-0.0382 0.11788,-0.0458 z m 8.64913,0.16102 c 0.18062,0.0214 0.35705,0.0974 0.51911,0.16424 h -1.06399 c 0.1789,-0.15213 0.36426,-0.18555 0.54488,-0.16424 z m -27.80809,3.18811 c 0.51084,0.42389 0.93128,0.77252 1.44012,1.19475 -0.47856,0.16406 -0.83963,0.30451 -1.21084,0.40832 -0.19555,0.0548 -0.42224,0.0585 -0.38773,-0.26213 0.0444,-0.4119 0.0968,-0.82278 0.15845,-1.34094 z m -5.33286,2.52346 c 0.43171,1.40954 0.43149,1.40947 -0.36968,1.54896 -0.0405,-0.51276 0.012,-0.99835 0.36968,-1.54896 z m 37.17021,0.17711 c 0.0467,0.0322 0.0938,0.0643 0.14047,0.0966 -0.0533,0.0417 -0.10427,0.0459 -0.14615,-0.0271 -0.009,-0.0166 0.003,-0.0459 0.006,-0.0696 z m 10.04417,0.80572 0.0811,0.18485 c -0.0905,0.0248 -0.12177,-0.0299 -0.12431,-0.11459 -6.9e-4,-0.0229 0.028,-0.0468 0.0431,-0.0702 z m -41.81712,0.19709 c 0.1533,0.042 0.44784,-0.0576 0.41027,0.24023 -0.0274,0.21737 -0.24294,0.37531 -0.4766,0.41349 -0.27075,0.0443 -0.31786,-0.15809 -0.33493,-0.36519 -0.0245,-0.29854 0.18629,-0.28743 0.40126,-0.28853 z m 4.71777,0.2486 c 0.0515,0.0105 0.10576,0.0447 0.1636,0.11399 0.17557,0.21032 -0.0447,0.37859 -0.18872,0.49979 -1.96058,1.64946 -3.44732,3.76114 -5.37601,5.45072 -1.64908,1.44464 -3.33066,2.86443 -4.82596,4.47624 -0.0266,-0.80975 0.69463,-1.13323 1.11423,-1.62433 2.66816,-3.12291 5.59345,-5.9924 8.71483,-8.66201 0.11578,-0.099 0.24376,-0.28484 0.39803,-0.25441 z m -14.0889,0.55133 c 0.47122,0.24611 0.59686,0.67433 0.78705,1.03178 0.17583,0.33048 -0.0579,0.50347 -0.36841,0.61379 -0.41926,0.14899 -0.30875,-0.21134 -0.36003,-0.3729 -0.127,-0.40001 -0.11922,-0.81227 -0.0586,-1.27267 z m 58.67228,0.36582 c -0.009,0.0172 -0.0175,0.0343 -0.0265,0.0515 -0.004,-0.0105 -0.007,-0.0202 -0.0105,-0.0302 0.0135,-0.006 0.0251,-0.0135 0.0374,-0.0213 z m -60.48339,2.55565 c 0.0135,0.0586 0.0452,0.11384 0.0329,0.15586 -0.0241,0.082 -0.0764,0.0808 -0.11533,0.003 -0.012,-0.0224 -0.0207,-0.0601 -0.009,-0.0766 0.0206,-0.0313 0.057,-0.0525 0.0922,-0.0824 z m 28.46311,0.40125 c 0.14556,0.15438 0.12656,0.30701 0.0154,0.46953 -0.15188,-0.15401 -0.12371,-0.30692 -0.0154,-0.46953 z m -30.04364,1.00281 c 0.0156,0.003 0.0293,0.0242 0.0394,0.0631 0.004,0.0201 -0.009,0.0495 -0.0226,0.0676 -0.004,0.006 -0.0365,-0.007 -0.0561,-0.012 -0.003,-0.025 -0.0187,-0.0552 -0.009,-0.074 0.0159,-0.0332 0.0334,-0.0476 0.0489,-0.0444 z m -1.82592,0.0966 c 0.45475,0.19051 0.57619,0.58053 0.69623,0.94291 0.10547,0.31824 -0.15475,0.52013 -0.36454,0.70268 -0.0922,0.0802 -0.22498,0.23933 -0.36066,0.1101 -0.18269,-0.17394 -0.11474,-0.42653 -0.0998,-0.64471 0.0247,-0.36203 0.0818,-0.72187 0.1288,-1.11101 z m 19.14287,0.24604 c 0.0399,0.31384 0.12506,0.5627 -0.0838,0.76579 -0.022,0.0214 -0.17395,-0.0293 -0.18614,-0.0702 -0.0778,-0.26053 -0.0171,-0.48764 0.26986,-0.69559 z m -20.36852,1.51548 c 0.11743,0.18702 0.25739,0.36371 0.34586,0.56355 0.0962,0.2173 0.10456,0.45844 -0.10173,0.62926 -0.0754,0.0624 -0.24742,0.11952 -0.29885,0.0799 -0.18126,-0.14002 -0.0963,-0.36532 -0.10502,-0.55711 -0.0105,-0.22746 -0.003,-0.45542 -0.003,-0.68335 0.054,-0.0105 0.10831,-0.0214 0.16231,-0.0322 z m 22.6762,0.87657 c 0.24026,0.0325 0.14944,0.31039 0.11459,0.6125 -0.11324,-0.12685 -0.18366,-0.18052 -0.22026,-0.25182 -0.0788,-0.15359 -0.146,-0.39459 0.10561,-0.36068 z m -3.63768,2.85965 c 0.50395,0.1784 0.9004,0.25242 0.88173,0.80507 -0.0269,0.79416 -0.007,1.5899 -0.007,2.38496 -0.0452,0.004 -0.0901,0.009 -0.13523,0.0135 -0.24058,-1.04272 -0.48124,-2.08526 -0.73939,-3.20421 z m -8.79534,0.0676 c 0.0199,10e-4 0.0399,0.003 0.0598,0.004 l -0.0135,0.0135 c -0.0156,-0.006 -0.0308,-0.012 -0.0464,-0.0168 z m 12.69772,0.57001 c 0.37298,-0.0221 0.21549,0.3871 0.22414,0.59834 0.0203,0.49696 0.0583,1.00603 -0.12042,1.58053 -0.51297,-0.44315 -0.63622,-0.96909 -0.71749,-1.4865 -0.0657,-0.41775 0.29345,-0.6733 0.61379,-0.69237 z m 25.26018,1.2527 c 0.30272,0.70368 0.11429,1.33822 0.031,1.97921 -0.0211,0.16287 -0.0168,0.3689 -0.27503,0.31623 -0.20061,-0.041 -0.28356,-0.20302 -0.24087,-0.38387 0.15104,-0.63962 0.32174,-1.27482 0.48498,-1.91157 z m -31.20682,0.0503 c 0.62992,0.25621 0.90653,0.97995 1.44528,1.10843 1.78137,0.4249 1.67252,1.81629 1.77053,3.13532 0.0256,0.34388 0.0278,0.69566 0.1101,1.02663 0.0465,0.1871 -0.003,0.51477 0.33233,0.51912 0.27634,0.003 0.38309,-0.21102 0.45342,-0.44441 0.18639,-0.61841 0.37477,-1.23569 0.57579,-1.89677 0.526,0.39801 0.76231,0.80807 0.56742,1.43884 -1.47965,4.78898 -2.99371,9.56417 -5.23559,14.06957 -0.59747,1.20074 -1.17986,2.40845 -2.10093,3.66086 -0.13044,-0.9236 -0.21392,-1.63486 -0.33428,-2.33989 -0.23315,-1.36562 -0.23095,-1.37472 1.11231,-1.92574 0.33241,-0.13643 0.77355,-0.217 0.7162,-0.72135 -0.21033,-1.84942 0.20554,-3.66166 0.33748,-5.48807 0.15451,-2.13866 -0.58781,-4.13452 -0.78317,-6.21328 -0.12686,-1.3495 -0.33193,-2.68208 0.49206,-4.00093 0.10158,0.14152 0.14645,0.21531 0.20159,0.28017 0.17304,0.20336 0.25844,0.62078 0.62151,0.44634 0.33301,-0.16 0.0956,-0.5008 0.0863,-0.77095 -0.0214,-0.626 -0.41853,-1.18039 -0.36842,-1.88389 z m 30.06683,1.20054 c 0.10471,-0.009 0.14301,0.0678 0.12491,0.15844 -0.007,0.0394 -0.0588,0.0699 -0.11085,0.12686 -0.047,-0.0727 -0.0948,-0.13224 -0.12177,-0.20031 -0.006,-0.0135 0.0676,-0.0818 0.10756,-0.085 z m -42.23319,1.85941 c 0.0886,0.006 0.18734,0.0408 0.29884,0.11205 0.52308,0.3342 0.0206,0.63186 -0.1101,0.83985 -1.11389,1.77099 -2.05066,3.63519 -3.01615,5.48677 -0.46735,0.89628 -0.75212,1.89222 -1.49423,2.86867 -0.13194,-1.38416 -0.37341,-2.56816 -0.86884,-3.74845 1.71004,0.42578 1.74047,0.42791 1.88646,-1.29457 0.0473,-0.55782 0.33652,-0.72603 0.77868,-0.82955 0.70892,-0.166 1.14394,-0.51629 1.20504,-1.33194 0.0444,-0.59298 0.41039,-1.1226 0.72585,-1.63655 0.15423,-0.25127 0.3286,-0.48538 0.59448,-0.46631 z m 2.66964,7.64182 c 0.0244,-0.0365 0.21306,-0.0277 0.22608,0.003 0.18207,0.42322 0.0344,0.80571 -0.18228,1.18378 -0.0586,-0.39914 -0.31163,-0.78524 -0.0438,-1.18636 z m 25.47336,1.91351 c 0.17123,0.0353 0.19157,0.19915 0.19259,0.33814 0.006,0.81752 0.003,1.63516 0.003,2.68316 -0.95863,-0.87441 -1.07944,-1.99158 -0.51847,-2.80167 0.0835,-0.12042 0.1589,-0.25332 0.32267,-0.21963 z"
     id="path2"
     sodipodi:nodetypes="ccsscscsscsssssssssssssscssssssscssssscssscsscsssccscsscssssssscsscssssssssssccssscsssssscsssssssssssccsssscsssssscsssssssssssssssscsscssscssscssscssscssscsscssssssccsssssscsssscssssscssccsccssscssscscscccsssssccccsssssssssssscssscssscssscssscssscssccsscssscssscsccsscssscsssssscsssssssssssssscssscssssccscssssssssssscsssccsssssccscscsccccssssssssscccccccccccsccsccsscccccccccccssccssscsscscssssssssssccccccsccccccccccccccsssssssssssscsscscscscssscscccccccccsscssssssssssssscscsscssssscsssssscccsssscsccsssssscccccsscsss"
     transform="translate(636.33982,-99.641731)" /><g
     id="g2"
     inkscape:label="Beach"
     style="display:inline">&#10;	&#10;	&#10;<path
   style="color:#000000;display:inline;fill:#8bbaff;stroke-width:1;stroke-linecap:round;stroke-linejoin:round;stroke-dasharray:144.001, 144.001;-inkscape-stroke:none;paint-order:markers fill stroke"
   d="m 426.83794,753.49254 a 3.31056,3.31056 0 0 0 -2.03678,4.2158 c 0.86051,2.47073 1.32151,5.07327 1.31906,7.6492 a 3.31056,3.31056 0 0 0 0.004,0.011 3.31056,3.31056 0 0 0 -0.004,0.0129 c 0.01,1.62085 -0.43609,3.24542 -1.26518,4.5434 a 3.3108911,3.3108911 0 0 0 -0.009,0.0151 c -1.21063,1.91667 -3.28426,3.50287 -5.70081,4.7654 -0.001,7.7e-4 -0.003,10e-4 -0.004,0.002 -3.25154,1.6785 -6.91227,2.79166 -10.73131,3.69206 -4.83386,1.11849 -9.81169,1.83311 -14.85656,2.38809 -8.35354,0.90197 -16.79635,1.33721 -25.28398,1.65743 -18.23297,0.65435 -36.55534,0.72728 -54.93245,1.42251 -11.61885,0.43822 -23.27099,1.08955 -34.90529,2.32989 a 3.31056,3.31056 0 0 0 -2.94199,3.64247 3.31056,3.31056 0 0 0 3.64248,2.94201 c 11.41391,-1.21684 22.9168,-1.86454 34.45481,-2.29972 18.22986,-0.68965 36.54999,-0.76073 54.92599,-1.42035 a 3.3108911,3.3108911 0 0 0 0.007,0 c 8.54967,-0.32256 17.14889,-0.76278 25.75168,-1.69192 a 3.3108911,3.3108911 0 0 0 0.007,0 c 5.19162,-0.57111 10.4329,-1.31845 15.63894,-2.52388 a 3.3108911,3.3108911 0 0 0 0.0129,-0.002 c 4.0819,-0.96237 8.27849,-2.20135 12.26373,-4.26106 a 3.3108911,3.3108911 0 0 0 0.0129,-0.007 c 3.01871,-1.57636 6.12425,-3.76134 8.2333,-7.09744 1.56421,-2.45338 2.3091,-5.28764 2.29756,-8.10613 a 3.31056,3.31056 0 0 0 0.004,-0.011 c 0,-0.006 -0.002,-0.01 -0.002,-0.0151 -2e-5,-0.003 0.002,-0.006 0.002,-0.009 a 3.31056,3.31056 0 0 0 -0.002,-0.002 c 1.1e-4,-3.35798 -0.59559,-6.67525 -1.68545,-9.80452 a 3.31056,3.31056 0 0 0 -4.21579,-2.03893 z"
   id="path11"
   transform="translate(636.33982,-99.641731)" /><path
   style="color:#000000;display:inline;fill:#8bbaff;stroke-width:1;stroke-linecap:round;stroke-linejoin:round;stroke-dasharray:144.001, 144.001;-inkscape-stroke:none;paint-order:markers fill stroke"
   d="m -1.4464977,760.1053 a 3.31056,3.31056 0 0 0 -2.8191481,3.73947 l 0.056037,0.39227 a 3.3108911,3.3108911 0 0 0 0.00651,0.0539 c 0.6497205,4.11872 2.4545761,7.75302 4.51753496,10.91451 a 3.3108911,3.3108911 0 0 0 0.006511,0.011 c 2.63595504,4.00772 5.84263624,7.47807 9.18594104,10.62353 a 3.3108911,3.3108911 0 0 0 0.00651,0.007 c 4.0888028,3.82776 8.4928608,7.23559 13.0159328,10.37569 a 3.3108911,3.3108911 0 0 0 0.0043,0.002 c 6.390076,4.42393 13.080256,8.34524 19.910777,11.92104 a 3.3108911,3.3108911 0 0 0 0.0043,0.002 c 9.311684,4.86382 18.929762,9.09753 28.72816,12.8004 a 3.3108911,3.3108911 0 0 0 0.0022,0 c 11.055269,4.16921 22.370535,7.66988 33.875042,10.41447 a 3.3108911,3.3108911 0 0 0 0.002,0 c 9.71464,2.31093 19.58425,4.08947 29.5601,5.12965 a 3.31056,3.31056 0 0 0 3.63602,-2.94848 3.31056,3.31056 0 0 0 -2.95062,-3.63601 c -9.64877,-1.00606 -19.2352,-2.73123 -28.71092,-4.98524 h -0.002 C 95.368307,822.24562 84.320661,818.82776 73.517587,814.75375 h -0.0022 c -9.575819,-3.61884 -18.95014,-7.74604 -27.999665,-12.4728 l -0.0022,-0.002 c -6.640029,-3.47618 -13.092414,-7.26263 -19.208145,-11.49644 l -0.0022,-0.002 c -4.330186,-3.00632 -8.474649,-6.21906 -12.259418,-9.76142 l -0.0065,-0.007 c -3.103383,-2.92035 -5.9389905,-6.02093 -8.1794109,-9.42517 -1.7484701,-2.67953 -3.0710266,-5.49757 -3.51747,-8.32167 -2.406e-4,-0.001 -0.00188,-0.003 -0.00221,-0.004 l -0.047418,-0.33623 a 3.31056,3.31056 0 0 0 -3.7373121,-2.81916 z"
   id="path12"
   transform="translate(636.33982,-99.641731)" /><path
   style="color:#000000;display:inline;fill:#8bbaff;stroke:#8bbaff;stroke-width:1;stroke-linecap:round;stroke-linejoin:round;stroke-opacity:1;-inkscape-stroke:none;paint-order:stroke fill markers"
   d="m 851.49999,594.32077 c -54.39711,0 -103.64465,6.70226 -139.55277,17.6584 -17.95405,5.47808 -32.58275,12.00399 -42.91602,19.45816 -10.33326,7.45416 -16.51953,16.04605 -16.51953,25.36582 0,5.05501 2.82451,10.0332 7.34961,14.88016 4.5251,4.84698 10.85455,9.63305 18.50391,14.25114 15.29872,9.23617 35.89459,17.77517 57.79884,23.81421 21.90425,6.03904 45.09544,9.57853 65.6289,8.59856 20.53349,-0.97997 38.65379,-6.53134 49.49221,-19.11217 8.1561,-9.4673 24.29327,-15.10926 44.26954,-18.25075 19.97626,-3.1415 43.56952,-3.8568 66.13086,-4.29491 22.56138,-0.43811 44.06236,-0.591 60.25386,-2.76776 8.0958,-1.08838 14.8806,-2.64638 19.9766,-5.25943 5.096,-2.61305 8.5723,-6.74452 8.5723,-11.85905 0,-9.31977 -6.1863,-17.91166 -16.5196,-25.36582 -10.3332,-7.45417 -24.9619,-13.98008 -42.91593,-19.45816 -35.90815,-10.95614 -85.15568,-17.6584 -139.55278,-17.6584 z m 0,5.36776 c 53.84414,0 102.59157,6.68321 137.61721,17.37011 17.5128,5.34343 31.5841,11.70215 41.086,18.55653 9.5017,6.85436 14.2851,13.99467 14.2851,21.18798 0,3.14201 -1.6103,5.17893 -5.5566,7.20245 -3.9464,2.02351 -10.1599,3.56914 -17.8848,4.60767 -15.45,2.07707 -36.88253,2.27105 -59.49221,2.71009 -22.6097,0.43905 -46.42653,1.13199 -67.03907,4.37354 -20.61255,3.24156 -38.24381,8.95769 -47.98244,20.26192 -9.37775,10.88535 -25.54149,16.09608 -45.06056,17.02763 -19.51905,0.93155 -42.14999,-2.47037 -63.54101,-8.36791 -21.39104,-5.89755 -41.56329,-14.29083 -56.209,-23.13277 -7.32285,-4.42096 -13.25775,-8.96043 -17.25586,-13.24293 -3.99811,-4.28249 -5.95508,-8.23816 -5.95508,-11.43969 0,-7.19331 4.78335,-14.33362 14.28516,-21.18798 9.5018,-6.85438 23.57313,-13.2131 41.08594,-18.55653 35.02563,-10.6869 83.77307,-17.37011 137.61722,-17.37011 z"
   id="path7" /><g
   id="path5"
   inkscape:label="land"
   transform="translate(636.33982,-99.641731)"
   style="stroke:#c4cd0b;stroke-opacity:1;stroke-width:2;stroke-dasharray:none;stroke-dashoffset:0"><path
     style="color:#000000;fill:#fff674;fill-opacity:1;stroke-linecap:round;stroke-linejoin:round;stroke-dasharray:none;paint-order:markers fill stroke;stroke:#ffe236;stroke-opacity:1;stroke-width:2;stroke-dashoffset:0"
     d="m 411.14844,727.26947 c 0,36.91614 -162.78959,-0.83814 -198.57907,45.59804 -40.4324,52.4603 -193.397452,-8.6819 -193.397457,-45.59804 5e-6,-36.91614 87.746937,-66.84258 195.988257,-66.84258 108.24133,0 195.98827,29.92644 195.98827,66.84258 z"
     id="path9" /></g></g></g>&#10;</svg>
